<svg width="24" height="24" viewBox="0 0 24 24" fill="none" xmlns="http://www.w3.org/2000/svg">
<g clip-path="url(#clip0)">
<path d="M19.8261 6.50672H18.5159C18.6887 6.23321 18.8027 5.92619 18.8353 5.60149C18.9391 4.56378 18.3926 3.63354 17.4622 3.22113C16.607 2.84204 15.6459 2.997 14.9539 3.62468L13.2994 5.1241C12.9772 4.77169 12.5141 4.55021 12 4.55021C11.485 4.55021 11.0211 4.7724 10.6988 5.12589L9.04227 3.62451C8.34909 2.99683 7.38841 2.84246 6.53359 3.22134C5.60343 3.63379 5.05682 4.56434 5.16102 5.60201C5.19361 5.92647 5.30759 6.23335 5.48038 6.50672H4.1739C3.52555 6.50672 3 7.03231 3 7.68063V9.4415C3 9.76564 3.26279 10.0285 3.58697 10.0285H20.4131C20.7372 10.0285 21 9.76567 21 9.4415V7.68063C21 7.03231 20.4744 6.50672 19.8261 6.50672ZM10.2391 6.31108V6.50672H7.47785C6.74829 6.50672 6.17412 5.82659 6.35633 5.06701C6.43659 4.73249 6.67805 4.44734 6.99034 4.30299C7.41918 4.10478 7.89421 4.16841 8.25438 4.49442L10.2396 6.29378C10.2395 6.29958 10.2391 6.30528 10.2391 6.31108ZM17.6705 5.44564C17.6268 6.0557 17.0757 6.50679 16.4641 6.50679H13.7609V6.31115C13.7609 6.30422 13.7604 6.29737 13.7604 6.29044C14.2101 5.88277 15.1857 4.99852 15.7149 4.51888C16.0156 4.24632 16.4364 4.11909 16.8253 4.2351C17.3835 4.4016 17.7113 4.87628 17.6705 5.44564Z" fill="#0F0D22"/>
<path d="M4.17395 11.2017V19.8104C4.17395 20.4587 4.6995 20.9843 5.34785 20.9843H10.8261V11.2017H4.17395Z" fill="#0F0D22"/>
<path d="M13.174 11.2017V20.9843H18.6522C19.3006 20.9843 19.8261 20.4587 19.8261 19.8104V11.2017H13.174Z" fill="#0F0D22"/>
</g>
<defs>
<clipPath id="clip0">
<rect width="18" height="18" fill="white" transform="translate(3 3)"/>
</clipPath>
</defs>
</svg>
