<svg width="24" height="24" viewBox="0 0 24 24" fill="none" xmlns="http://www.w3.org/2000/svg">
<path d="M19.5721 5.56581C18.6403 4.5561 17.3617 4 15.9717 4C14.9327 4 13.9811 4.3282 13.1434 4.97541C12.7207 5.3021 12.3377 5.70178 12 6.16828C11.6624 5.70192 11.2793 5.3021 10.8565 4.97541C10.0189 4.3282 9.06734 4 8.02831 4C6.63826 4 5.35959 4.5561 4.42781 5.56581C3.50716 6.56372 3 7.92701 3 9.40473C3 10.9257 3.56731 12.3179 4.78528 13.7863C5.87485 15.0998 7.44081 16.4332 9.25424 17.9772C9.87346 18.5044 10.5753 19.1021 11.3042 19.7388C11.4967 19.9072 11.7437 20 12 20C12.2561 20 12.5033 19.9072 12.6956 19.739C13.4244 19.1023 14.1267 18.5043 14.7462 17.9767C16.5593 16.433 18.1253 15.0998 19.2149 13.7862C20.4328 12.3179 21 10.9257 21 9.40459C21 7.92701 20.4928 6.56372 19.5721 5.56581Z" fill="#0F0D22"/>
</svg>
