<svg width="24" height="24" viewBox="0 0 24 24" fill="none" xmlns="http://www.w3.org/2000/svg">
<path d="M20.79 10.9848L14.2899 4.22942C14.0779 4.00934 13.7529 3.94025 13.47 4.05424C13.186 4.16932 13 4.44456 13 4.75077V8.00348H12.75C7.37403 8.00348 3 12.381 3 17.7612V19.2624C3 19.6106 3.245 19.9009 3.58392 19.98C3.63904 19.994 3.69397 20 3.7489 20C4.03199 20 4.30298 19.8338 4.4339 19.5727C5.83997 16.7574 8.66695 15.009 11.812 15.009H13V18.2615C13 18.5679 13.186 18.8431 13.47 18.9571C13.7511 19.0722 14.0779 19.0022 14.2899 18.7819L20.79 12.0266C21.07 11.7354 21.07 11.2771 20.79 10.9848V10.9848Z" fill="#0F0D22"/>
</svg>
