<svg width="28" height="28" viewBox="0 0 28 28" fill="none" xmlns="http://www.w3.org/2000/svg">
<g clip-path="url(#clip0)">
<path d="M3.20795 22.9598L5.07424 19.8489C5.93618 18.4131 6.39163 16.7685 6.39163 15.0946V12.3696C6.39163 8.92934 8.68729 6.01957 11.8264 5.08151V3.13044C11.8264 1.93151 12.8014 0.956512 14.0004 0.956512C15.1993 0.956512 16.1743 1.93151 16.1743 3.13044V5.08151C19.3134 6.01957 21.609 8.92934 21.609 12.3696V15.0946C21.609 16.7685 22.0645 18.4119 22.9254 19.8479L24.7917 22.9587C24.8927 23.1272 24.8949 23.3359 24.7982 23.5065C24.7014 23.6772 24.5221 23.7827 24.3264 23.7827H3.67426C3.47861 23.7827 3.29819 23.6772 3.20143 23.5077C3.10468 23.3381 3.10794 23.1272 3.20795 22.9598Z" fill="black"/>
<path d="M17.4231 24.8695C16.8101 26.15 15.5122 27.0435 14.0003 27.0435C12.4884 27.0435 11.1905 26.15 10.5775 24.8695H17.4231Z" fill="black"/>
</g>
<defs>
<clipPath id="clip0">
<rect width="26.087" height="26.087" fill="white" transform="matrix(-1 0 0 1 27.0435 0.956512)"/>
</clipPath>
</defs>
</svg>
